<svg width="46" height="46" viewBox="0 0 46 46" fill="none" xmlns="http://www.w3.org/2000/svg">
<path d="M39.8361 9.64357L26.2355 1.84795C25.266 1.29233 24.1679 1 23.0504 1C21.9329 1 20.8348 1.29233 19.8653 1.84795L6.32845 9.66746C5.35983 10.2267 4.55553 11.0311 3.99641 11.9998C3.43729 12.9684 3.14306 14.0672 3.14331 15.1857V30.8566C3.14865 31.9739 3.44523 33.0705 4.0038 34.0382C4.56236 35.006 5.3636 35.8113 6.32845 36.3748L19.8653 44.1465C20.8337 44.7057 21.9322 45 23.0504 45C24.1686 45 25.2671 44.7057 26.2355 44.1465L39.7724 36.327C40.741 35.7678 41.5453 34.9634 42.1044 33.9947C42.6635 33.0261 42.9578 31.9273 42.9575 30.8088V15.1857C42.9847 14.0664 42.7089 12.9606 42.1595 11.9851C41.6101 11.0095 40.8073 10.2005 39.8361 9.64357V9.64357ZM39.7724 30.8088C39.7732 31.3687 39.6264 31.9189 39.3468 32.404C39.0672 32.8891 38.6647 33.2919 38.1798 33.5719L24.643 41.3874C24.1588 41.667 23.6095 41.8141 23.0504 41.8141C22.4913 41.8141 21.942 41.667 21.4578 41.3874L13.9728 37.0716L16.7598 35.479C17.2447 35.199 17.6472 34.7962 17.9268 34.3111C18.2064 33.826 18.3532 33.2758 18.3523 32.7159V20.2859L23.0424 17.5706L24.5474 18.4385V14.7756C24.0704 14.5181 23.5355 14.3866 22.9935 14.3936C22.4514 14.4006 21.9201 14.5458 21.4499 14.8154L16.7598 17.5228C16.2749 17.8027 15.8723 18.2056 15.5927 18.6907C15.3132 19.1758 15.1664 19.726 15.1672 20.2859V32.692L10.7876 35.2242L7.92101 33.5679C7.44542 33.2894 7.04926 32.8935 6.77042 32.4181C6.49159 31.9426 6.33941 31.4036 6.32845 30.8526V27.5878L10.7478 25.0397L11.9821 25.7484V22.1054C11.5293 21.9146 11.0385 21.8311 10.5481 21.8615C10.0577 21.8919 9.581 22.0353 9.15525 22.2806L6.32845 23.913V15.1857C6.32762 14.6258 6.4744 14.0756 6.754 13.5905C7.03359 13.1054 7.43612 12.7026 7.92101 12.4226L21.4578 4.61105C21.9414 4.32954 22.4909 4.18122 23.0504 4.18122C23.6099 4.18122 24.1594 4.32954 24.643 4.61105L32.1201 8.92691L29.3331 10.5195C28.8482 10.7994 28.4457 11.2023 28.1661 11.6874C27.8865 12.1725 27.7397 12.7227 27.7405 13.2826V25.7126L23.0424 28.4279L21.5375 27.56V31.2308C22.0145 31.4893 22.55 31.6207 23.0925 31.6124C23.635 31.604 24.1662 31.4562 24.635 31.183L29.3331 28.4757C29.818 28.1957 30.2205 27.7929 30.5001 27.3078C30.7797 26.8227 30.9265 26.2725 30.9257 25.7126V13.2746L35.3052 10.7743L38.1639 12.4226C38.6488 12.7026 39.0513 13.1054 39.3309 13.5905C39.6105 14.0756 39.7573 14.6258 39.7564 15.1857V18.3231L35.3371 20.8473L34.1028 20.1386V23.7935C34.4949 23.9522 34.9141 24.0333 35.3371 24.0324C35.8936 24.0411 36.4427 23.9039 36.9296 23.6343L39.7644 22.0099L39.7724 30.8088Z" fill="#7B3FE4"/>
</svg>
