<svg width="46" height="46" viewBox="0 0 46 46" fill="none" xmlns="http://www.w3.org/2000/svg">
<path d="M39.338 9.66746L25.8012 1.84795C24.8316 1.29233 23.7336 1 22.6161 1C21.4986 1 20.4005 1.29233 19.4309 1.84795L5.89412 9.66746C4.92551 10.2267 4.1212 11.0311 3.56208 11.9998C3.00296 12.9684 2.70873 14.0672 2.70898 15.1857V30.8566C2.71708 31.9669 3.01526 33.0559 3.57397 34.0154C4.13267 34.975 4.93249 35.7719 5.89412 36.327L19.4309 44.1465C20.3993 44.7057 21.4979 45 22.6161 45C23.7343 45 24.8328 44.7057 25.8012 44.1465L39.338 36.327C40.3067 35.7678 41.111 34.9634 41.6701 33.9947C42.2292 33.0261 42.5234 31.9272 42.5232 30.8088V15.1379C42.5151 14.0276 42.2169 12.9386 41.6582 11.9791C41.0995 11.0195 40.2997 10.2226 39.338 9.66746V9.66746ZM5.89412 15.1857C5.89329 14.6258 6.04008 14.0756 6.31967 13.5905C6.59927 13.1054 7.00179 12.7026 7.48669 12.4226L21.0235 4.61105C21.507 4.32954 22.0566 4.18122 22.6161 4.18122C23.1756 4.18122 23.7251 4.32954 24.2086 4.61105L37.7455 12.4226C38.2234 12.6985 38.6215 13.0938 38.9006 13.5698C39.1798 14.0458 39.3305 14.5861 39.338 15.1379V16.7305C39.3338 17.9702 38.8389 19.1579 37.9615 20.0338C37.0842 20.9097 35.8956 21.4026 34.6559 21.4047H10.5763C8.88844 21.4007 7.24508 21.9456 5.89412 22.9574V15.1857ZM39.338 30.8088C39.3389 31.3687 39.1921 31.9189 38.9125 32.404C38.6329 32.8891 38.2304 33.2919 37.7455 33.5719L24.2086 41.3834C23.7244 41.663 23.1752 41.8102 22.6161 41.8102C22.057 41.8102 21.5077 41.663 21.0235 41.3834L7.48669 33.5719C7.00876 33.296 6.6107 32.9007 6.33152 32.4247C6.05234 31.9487 5.90161 31.4083 5.89412 30.8566V29.264C5.89833 28.0242 6.39323 26.8366 7.27062 25.9607C8.14801 25.0848 9.33651 24.5919 10.5763 24.5898H34.6559C36.3437 24.5938 37.9871 24.0488 39.338 23.0371V30.8088Z" fill="#7B3FE4"/>
<path d="M15.2106 14.3894H18.3002V19.0158H21.4854V14.3894C21.4854 13.5447 21.1498 12.7345 20.5525 12.1372C19.9551 11.5399 19.145 11.2043 18.3002 11.2043H15.2106C14.3659 11.2043 13.5557 11.5399 12.9584 12.1372C12.3611 12.7345 12.0255 13.5447 12.0255 14.3894V19.0158H15.2106V14.3894Z" fill="#7B3FE4"/>
<path d="M18.3002 31.6049H15.2106V26.9785H12.0255V31.6049C12.0255 32.4496 12.3611 33.2598 12.9584 33.8571C13.5557 34.4544 14.3659 34.79 15.2106 34.79H18.3002C19.145 34.79 19.9551 34.4544 20.5525 33.8571C21.1498 33.2598 21.4854 32.4496 21.4854 31.6049V26.9785H18.3002V31.6049Z" fill="#7B3FE4"/>
<path d="M27.7601 14.3894H30.8576V19.0158H34.0428V14.3894C34.0428 13.5447 33.7072 12.7345 33.1099 12.1372C32.5125 11.5399 31.7024 11.2043 30.8576 11.2043H27.7601C26.9153 11.2043 26.1052 11.5399 25.5079 12.1372C24.9105 12.7345 24.575 13.5447 24.575 14.3894V19.0158H27.7601V14.3894Z" fill="#7B3FE4"/>
<path d="M30.8576 31.6049H27.7601V26.9785H24.575V31.6049C24.575 32.4496 24.9105 33.2598 25.5079 33.8571C26.1052 34.4544 26.9153 34.79 27.7601 34.79H30.8576C31.7024 34.79 32.5125 34.4544 33.1099 33.8571C33.7072 33.2598 34.0428 32.4496 34.0428 31.6049V26.9785H30.8576V31.6049Z" fill="#7B3FE4"/>
</svg>
