<svg width="46" height="46" viewBox="0 0 46 46" fill="none" xmlns="http://www.w3.org/2000/svg">
<path d="M39.9582 9.66746L26.4213 1.84795C25.4518 1.29233 24.3537 1 23.2362 1C22.1187 1 21.0206 1.29233 20.0511 1.84795L6.51424 9.66746C5.54562 10.2267 4.74132 11.0311 4.1822 11.9998C3.62308 12.9684 3.32885 14.0672 3.3291 15.1857V30.8088C3.32885 31.9272 3.62308 33.0261 4.1822 33.9947C4.74132 34.9634 5.54562 35.7678 6.51424 36.327L20.0511 44.1465C21.0195 44.7057 22.118 45 23.2362 45C24.3544 45 25.4529 44.7057 26.4213 44.1465L39.9582 36.327C40.9268 35.7678 41.7311 34.9634 42.2902 33.9947C42.8493 33.0261 43.1435 31.9272 43.1433 30.8088V15.1857C43.1435 14.0672 42.8493 12.9684 42.2902 11.9998C41.7311 11.0311 40.9268 10.2267 39.9582 9.66746V9.66746ZM8.1068 33.556C7.62191 33.276 7.21938 32.8732 6.93979 32.3881C6.66019 31.903 6.51341 31.3528 6.51424 30.7929V15.1857C6.51341 14.6258 6.66019 14.0756 6.93979 13.5905C7.21938 13.1054 7.62191 12.7026 8.1068 12.4226L21.6436 4.61105C22.1272 4.32954 22.6767 4.18122 23.2362 4.18122C23.7957 4.18122 24.3452 4.32954 24.8288 4.61105L30.4824 7.8798C28.9327 8.60541 27.683 9.84664 26.9469 11.3914L26.716 11.8612C25.2857 11.2917 23.7378 11.0811 22.2073 11.2478C20.6769 11.4145 19.2106 11.9534 17.9365 12.8175C16.6624 13.6816 15.6193 14.8445 14.8983 16.2047C14.1772 17.5648 13.8002 19.0809 13.8002 20.6203V25.3343C13.7976 26.7824 14.1329 28.2112 14.7797 29.5069L16.9854 24.8725V20.6402C16.9864 18.9827 17.6453 17.3934 18.8174 16.2214C19.9894 15.0494 21.5787 14.3905 23.2362 14.3894C23.9555 14.3879 24.6696 14.5119 25.3463 14.7557L23.491 18.6495L16.5633 33.1897C16.3154 33.7175 15.96 34.1878 15.5199 34.5704C15.0797 34.9529 14.5645 35.2393 14.0073 35.4113C12.9745 35.7332 11.8576 35.6477 10.8858 35.1724L8.1068 33.556ZM39.9582 30.7929C39.959 31.3528 39.8122 31.903 39.5326 32.3881C39.253 32.8732 38.8505 33.276 38.3656 33.556L24.8288 41.3834C24.3446 41.663 23.7953 41.8102 23.2362 41.8102C22.6771 41.8102 22.1278 41.663 21.6436 41.3834L15.9104 38.0789C17.4591 37.3488 18.7061 36.1032 19.4379 34.5553L19.6609 34.0775C21.0934 34.6672 22.6491 34.8947 24.1905 34.7398C25.7318 34.5849 27.2112 34.0524 28.4977 33.1895C29.7843 32.3265 30.8382 31.1598 31.5663 29.7924C32.2944 28.4251 32.6742 26.8994 32.6722 25.3503V20.6402C32.6722 19.1538 32.3202 17.6884 31.645 16.3642L29.487 20.8871V25.3542C29.4839 27.0111 28.8243 28.5992 27.6527 29.7708C26.4811 30.9423 24.893 31.6019 23.2362 31.6051C22.4854 31.6083 21.7404 31.4733 21.0385 31.2069L29.8215 12.757C30.3132 11.7407 31.1875 10.9606 32.2531 10.5875C33.3187 10.2144 34.4887 10.2787 35.5069 10.7663L38.3656 12.4226C38.8505 12.7026 39.253 13.1054 39.5326 13.5905C39.8122 14.0756 39.959 14.6258 39.9582 15.1857V30.7929Z" fill="#7B3FE4"/>
</svg>
