<svg width="30" height="32" viewBox="0 0 30 32" fill="none" xmlns="http://www.w3.org/2000/svg">
<path d="M1.9244 11.4635L3.0175 10.7691V10.7543C3.09898 10.208 3.3036 9.68734 3.61589 9.23174C3.92818 8.77614 4.33997 8.39751 4.82012 8.12447L12.9459 3.44095C13.509 3.12138 14.1454 2.95338 14.7928 2.95338C15.4403 2.95338 16.0767 3.12138 16.6398 3.44095C17.3778 3.72487 18.0162 4.21924 18.4759 4.86272C18.9355 5.50621 19.196 6.27048 19.2252 7.06071V20.2395L22.1801 21.9534V7.06072C22.1586 5.74239 21.7604 4.45773 21.0327 3.35825C20.3049 2.25878 19.2779 1.39036 18.0728 0.855431L18.0693 0.861334C17.0614 0.292705 15.923 -0.00410189 14.7658 4.28202e-05C13.6085 0.00418753 12.4723 0.309141 11.4685 0.884976L3.34252 5.56848C2.33315 6.15088 1.49469 6.98848 0.911248 7.99724C0.327806 9.00601 0.0199005 10.1505 0.0184203 11.3158V12.8966L0.0331243 12.8818C0.599615 12.3293 1.23534 11.8525 1.9244 11.4635ZM17.3782 29.4145L16.2553 28.7496C15.727 28.9783 15.1525 29.08 14.5778 29.0466C14.0031 29.0132 13.4442 28.8457 12.9459 28.5575L4.81989 23.874C4.21756 23.5229 3.72543 23.0103 3.3991 22.3941C3.07277 21.778 2.92524 21.0828 2.97319 20.3873C2.88751 19.6467 3.01763 18.8971 3.3479 18.2287C3.67817 17.5604 4.19452 17.0016 4.83483 16.6198L16.2553 10.0599V6.63223L3.37214 14.049C2.79682 14.3591 2.28143 14.7693 1.85021 15.2605C1.23386 15.903 0.753828 16.6635 0.438992 17.4963C0.124157 18.3291 -0.0189768 19.217 0.0182013 20.1065C-0.0744527 21.366 0.187938 22.6261 0.775569 23.7439C1.3632 24.8617 2.25252 25.7923 3.34252 26.43L11.4685 31.1136C12.4801 31.6944 13.6262 32 14.7927 32C15.9592 32 17.1053 31.6944 18.1169 31.1136L19.5057 30.3157C19.491 30.3009 19.491 30.3009 19.4763 30.3009C18.741 30.0988 18.0356 29.8008 17.3782 29.4145ZM28.6742 7.99731C28.0907 6.98855 27.2523 6.15096 26.2429 5.56856L24.8393 4.75597C24.8393 4.77067 24.854 4.8003 24.854 4.81506C25.0444 5.54833 25.1388 6.30321 25.1349 7.06078V8.3757C25.5927 8.71721 25.9647 9.16076 26.2211 9.67112C26.4776 10.1815 26.6115 10.7446 26.6123 11.3158V20.6829C26.6113 21.3263 26.4416 21.9582 26.1202 22.5156C25.7987 23.0729 25.3367 23.5363 24.7803 23.8593C24.1671 24.3612 23.4194 24.671 22.631 24.7499C21.8425 24.8287 21.0483 24.6731 20.3479 24.3026L8.86819 17.6984L5.89852 19.4123L18.8705 26.8586C20.0549 27.5127 21.4045 27.8067 22.7536 27.7043C24.1027 27.6019 25.3925 27.1077 26.4646 26.2824L26.4644 26.2822C27.4117 25.6862 28.193 24.8603 28.7355 23.8813C29.278 22.9024 29.5641 21.8021 29.5673 20.6829V11.3158C29.5656 10.1505 29.2577 9.00605 28.6742 7.99731Z" fill="#7B3FE4"/>
</svg>
