<svg width="46" height="46" viewBox="0 0 46 46" fill="none" xmlns="http://www.w3.org/2000/svg">
<path d="M43.3257 19.6637V30.8552C43.324 31.9596 43.0328 33.0442 42.4811 34.0009C41.9295 34.9577 41.1366 35.753 40.1815 36.3076L26.5782 44.156C25.6197 44.7089 24.5327 45 23.4261 45C22.3196 45 21.2325 44.7089 20.2741 44.156L6.67871 36.3076C5.77238 35.7881 5.00965 35.0511 4.45935 34.1632C3.90906 33.2752 3.58851 32.2642 3.52663 31.2213C3.50268 30.8143 3.60436 30.4097 3.81791 30.0623C4.03146 29.7149 4.34657 29.4415 4.7206 29.2791L39.9587 14.1555C39.724 13.4313 39.2272 12.821 38.5657 12.4442L24.9863 4.59578C24.5133 4.32223 23.9765 4.1782 23.4301 4.1782C22.8837 4.1782 22.347 4.32223 21.874 4.59578L8.27067 12.4521C7.79698 12.7237 7.40332 13.1155 7.1294 13.5879C6.85548 14.0602 6.71101 14.5965 6.71055 15.1425V24.9649L3.52663 26.3261V15.1425C3.52988 14.0375 3.82261 12.9527 4.37565 11.996C4.92869 11.0393 5.72275 10.2443 6.67871 9.69006L20.282 1.84169C21.2396 1.29025 22.3252 1 23.4301 1C24.5351 1 25.6207 1.29025 26.5782 1.84169L40.1815 9.69006C41.0857 10.2114 41.8463 10.949 42.395 11.8367C42.9438 12.7245 43.2636 13.7346 43.3257 14.7764C43.3496 15.1834 43.2479 15.588 43.0344 15.9354C42.8208 16.2828 42.5057 16.5562 42.1317 16.7186L6.89363 31.8422C7.1313 32.5671 7.63084 33.1774 8.29455 33.5536L21.874 41.4019C22.347 41.6755 22.8837 41.8195 23.4301 41.8195C23.9765 41.8195 24.5133 41.6755 24.9863 41.4019L38.5896 33.5456C39.061 33.272 39.4524 32.8796 39.7247 32.4076C39.9971 31.9355 40.1409 31.4002 40.1417 30.8552V21.0328L43.3257 19.6637Z" fill="#7B3FE4"/>
</svg>
