<svg width="254" height="33" viewBox="0 0 254 33" fill="none" xmlns="http://www.w3.org/2000/svg">
<g clip-path="url(#clip0)">
<path d="M56.9051 11.1934C57.7975 11.7335 58.5525 12.4761 59.033 13.4887C59.5822 14.5014 59.8568 15.7166 59.8568 17.0668C59.8568 18.417 59.5822 19.5647 58.9644 20.5773C58.4153 21.59 57.5915 22.3326 56.5619 22.8052C55.5322 23.3453 54.2967 23.6153 52.9925 23.6153C52.2374 23.6153 51.551 23.4803 50.8645 23.2103C50.1781 23.0077 49.5603 22.6027 49.0798 22.1301V29.1512H45.0985V10.6533H48.5307L48.8739 12.1385C50.384 10.9233 52.0315 10.3157 53.7475 10.3157C54.9145 10.3157 56.0128 10.5858 56.9051 11.1934ZM54.7085 19.5647C55.395 18.9571 55.7382 18.147 55.7382 17.1343C55.7382 16.1216 55.395 15.3115 54.7772 14.6364C54.1594 13.9613 53.3357 13.6913 52.4433 13.6913C51.6882 13.6913 51.0018 13.8263 50.4527 14.1638C49.9035 14.4339 49.4917 14.9065 49.1484 15.514V18.552C49.3544 19.1596 49.7662 19.6322 50.2467 19.9697C50.7959 20.3073 51.4137 20.5098 52.1687 20.5098C53.1984 20.5098 54.0221 20.1723 54.7085 19.5647Z" fill="#212121"/>
<path d="M62.1906 13.5548C62.8084 12.6096 63.6321 11.7995 64.7304 11.2594C65.8287 10.7193 67.0643 10.3818 68.4371 10.3818C69.81 10.3818 71.0456 10.6518 72.1439 11.2594C73.1735 11.7995 73.9972 12.6096 74.615 13.6223C75.2328 14.6349 75.5074 15.7151 75.5074 16.9978C75.5074 18.2805 75.2328 19.3607 74.615 20.3733C73.9972 21.386 73.2422 22.1961 72.1439 22.7362C71.1142 23.2763 69.81 23.6138 68.4371 23.6138C67.0643 23.6138 65.8287 23.3438 64.7304 22.8037C63.6321 22.2636 62.8084 21.521 62.1906 20.5084C61.6415 19.4957 61.2983 18.348 61.2983 16.9978C61.2983 15.7151 61.6415 14.5674 62.1906 13.5548ZM66.2406 19.4282C66.7897 20.1033 67.5448 20.3733 68.4371 20.3733C69.3295 20.3733 70.0846 20.0358 70.6337 19.4282C71.1829 18.8206 71.4574 17.943 71.4574 16.9978C71.4574 15.9851 71.1829 15.175 70.6337 14.5674C70.0159 13.8923 69.3295 13.5548 68.3685 13.5548C67.4761 13.5548 66.7897 13.8923 66.1719 14.4999C65.6228 15.175 65.3482 15.9851 65.3482 16.9978C65.3482 17.943 65.6228 18.7531 66.2406 19.4282Z" fill="#212121"/>
<path d="M81.9597 1.06604V23.277H77.9785V1.06604H81.9597Z" fill="#212121"/>
<path d="M98.2968 10.9899L90.197 29.2177H86.353L89.3733 22.6692L83.6072 10.9899H88.1377L91.4325 18.281L94.7274 10.9899H98.2968Z" fill="#212121"/>
<path d="M113.536 10.9894V23.2763C113.536 24.424 113.192 25.5041 112.506 26.4493C111.82 27.3944 110.927 28.137 109.76 28.6771C108.593 29.2172 107.358 29.4873 105.985 29.4873C104.955 29.4873 104.063 29.3522 103.308 29.1497C102.553 28.8797 101.935 28.6096 101.454 28.3396C100.905 28.002 100.356 27.597 99.7384 27.0569L102.072 24.3565C102.621 24.8965 103.239 25.3016 103.788 25.5716C104.337 25.8417 105.093 26.0442 105.916 26.0442C106.946 26.0442 107.77 25.7742 108.456 25.3016C109.143 24.829 109.486 24.0864 109.486 23.2088V21.4535C109.074 22.0611 108.525 22.6012 107.701 23.0062C106.877 23.4113 105.916 23.6138 104.818 23.6138C103.72 23.6138 102.621 23.3438 101.66 22.7362C100.699 22.1961 99.9443 21.386 99.3266 20.3733C98.7774 19.3607 98.4342 18.2805 98.4342 17.0653C98.4342 15.8501 98.7088 14.7024 99.3266 13.6898C99.9443 12.6771 100.699 11.867 101.729 11.2594C102.69 10.6518 103.72 10.3818 104.818 10.3818C105.848 10.3818 106.74 10.5168 107.564 10.7868C108.387 11.0569 109.005 11.4619 109.417 11.9345L109.829 10.9894H113.536ZM109.486 18.5505V15.5126C109.211 14.905 108.799 14.4324 108.182 14.0949C107.564 13.7573 106.877 13.5548 106.054 13.5548C105.093 13.5548 104.269 13.8923 103.582 14.4999C102.896 15.1075 102.553 15.9176 102.553 16.9303C102.553 17.8754 102.896 18.7531 103.582 19.4282C104.269 20.1033 105.093 20.4408 106.054 20.4408C107.632 20.3733 108.799 19.7657 109.486 18.5505Z" fill="#212121"/>
<path d="M116.83 13.5562C117.448 12.5436 118.272 11.801 119.37 11.1934C120.469 10.6533 121.704 10.3157 123.077 10.3157C124.45 10.3157 125.685 10.5858 126.784 11.1934C127.813 11.7335 128.637 12.5436 129.255 13.5562C129.804 14.5689 130.147 15.6491 130.147 16.9318C130.147 18.2145 129.873 19.2946 129.255 20.3073C128.706 21.32 127.882 22.1301 126.784 22.6702C125.754 23.2103 124.45 23.5478 123.077 23.5478C121.704 23.5478 120.469 23.2778 119.37 22.7377C118.272 22.1976 117.448 21.455 116.83 20.4423C116.213 19.4297 115.938 18.282 115.938 16.8643C115.938 15.7166 116.213 14.5689 116.83 13.5562ZM120.812 19.4297C121.361 20.1048 122.116 20.3748 123.008 20.3748C123.901 20.3748 124.656 20.0373 125.205 19.4297C125.754 18.8221 126.029 17.9444 126.029 16.9993C126.029 15.9866 125.754 15.1765 125.205 14.5689C124.656 13.9613 123.901 13.6238 123.008 13.6238C122.116 13.6238 121.43 13.9613 120.812 14.5689C120.194 15.1765 119.919 16.0541 119.919 16.9993C119.988 17.9444 120.263 18.7546 120.812 19.4297Z" fill="#212121"/>
<path d="M144.219 11.3944C145.043 12.0695 145.386 12.9472 145.455 14.0273V23.2763H141.405V15.5126C141.336 14.2974 140.718 13.6898 139.551 13.6898C138.659 13.6898 137.904 14.0949 137.355 14.9725C136.806 15.8501 136.531 16.9303 136.531 18.213V23.2763H132.55V10.9894H136.188L136.462 12.9472C136.943 12.137 137.561 11.5295 138.384 11.0569C139.208 10.5843 140.169 10.3818 141.267 10.3818C142.434 10.3818 143.464 10.7193 144.219 11.3944Z" fill="#212121"/>
<path d="M28.075 10.7883C27.3886 10.3832 26.4962 10.3832 25.7411 10.7883L20.387 13.8938L16.7489 15.9191L11.3947 19.0246C10.7083 19.4296 9.81595 19.4296 9.06088 19.0246L4.80501 16.5942C4.11858 16.1891 3.63808 15.4465 3.63808 14.6364V9.84315C3.63808 9.03302 4.04994 8.29041 4.80501 7.88534L8.99223 5.52247C9.67866 5.11741 10.571 5.11741 11.3261 5.52247L15.5133 7.88534C16.1998 8.29041 16.6803 9.03302 16.6803 9.84315V12.9486L20.3183 10.8558V7.75032C20.3183 6.94019 19.9065 6.19758 19.1514 5.79251L11.3947 1.33682C10.7083 0.931754 9.81595 0.931754 9.06088 1.33682L1.16693 5.79251C0.411858 6.19758 0 6.94019 0 7.75032V16.7292C0 17.5394 0.411858 18.282 1.16693 18.687L9.06088 23.1427C9.74731 23.5478 10.6397 23.5478 11.3947 23.1427L16.7489 20.1048L20.387 18.0119L25.7411 14.9739C26.4276 14.5689 27.3199 14.5689 28.075 14.9739L32.2622 17.3368C32.9486 17.7419 33.4291 18.4845 33.4291 19.2946V24.0879C33.4291 24.898 33.0173 25.6406 32.2622 26.0457L28.075 28.4761C27.3886 28.8811 26.4962 28.8811 25.7411 28.4761L21.5539 26.1132C20.8675 25.7081 20.387 24.9655 20.387 24.1554V21.0499L16.7489 23.1427V26.2482C16.7489 27.0583 17.1608 27.801 17.9158 28.206L25.8098 32.6617C26.4962 33.0668 27.3886 33.0668 28.1436 32.6617L36.0376 28.206C36.724 27.801 37.2045 27.0583 37.2045 26.2482V17.2693C37.2045 16.4592 36.7927 15.7166 36.0376 15.3115L28.075 10.7883Z" fill="#8247E5"/>
</g>
<path d="M152.54 24V8.16H157.347C157.516 8.16 157.802 8.16367 158.205 8.171C158.616 8.17833 159.008 8.20767 159.382 8.259C160.585 8.42767 161.589 8.875 162.396 9.601C163.203 10.327 163.808 11.251 164.211 12.373C164.614 13.495 164.816 14.7307 164.816 16.08C164.816 17.4293 164.614 18.665 164.211 19.787C163.808 20.909 163.203 21.833 162.396 22.559C161.589 23.285 160.585 23.7323 159.382 23.901C159.015 23.945 158.623 23.9743 158.205 23.989C157.787 23.9963 157.501 24 157.347 24H152.54ZM154.212 22.449H157.347C157.648 22.449 157.97 22.4417 158.315 22.427C158.667 22.405 158.968 22.3683 159.217 22.317C160.141 22.1557 160.885 21.7817 161.45 21.195C162.022 20.6083 162.44 19.875 162.704 18.995C162.968 18.1077 163.1 17.136 163.1 16.08C163.1 15.0167 162.968 14.0413 162.704 13.154C162.44 12.2667 162.022 11.5333 161.45 10.954C160.878 10.3747 160.134 10.0043 159.217 9.843C158.968 9.79167 158.663 9.75867 158.304 9.744C157.952 9.722 157.633 9.711 157.347 9.711H154.212V22.449ZM172.348 24.33C171.19 24.33 170.185 24.0733 169.334 23.56C168.491 23.0467 167.835 22.3243 167.365 21.393C166.896 20.4617 166.661 19.369 166.661 18.115C166.661 16.817 166.892 15.695 167.354 14.749C167.816 13.803 168.465 13.0733 169.301 12.56C170.145 12.0467 171.138 11.79 172.282 11.79C173.456 11.79 174.457 12.0613 175.285 12.604C176.114 13.1393 176.741 13.9093 177.166 14.914C177.592 15.9187 177.786 17.1177 177.749 18.511H176.099V17.939C176.07 16.399 175.736 15.2367 175.098 14.452C174.468 13.6673 173.544 13.275 172.326 13.275C171.05 13.275 170.071 13.6893 169.389 14.518C168.715 15.3467 168.377 16.5273 168.377 18.06C168.377 19.556 168.715 20.7183 169.389 21.547C170.071 22.3683 171.036 22.779 172.282 22.779C173.133 22.779 173.874 22.5847 174.504 22.196C175.142 21.8 175.645 21.2317 176.011 20.491L177.518 21.074C177.049 22.108 176.356 22.911 175.439 23.483C174.53 24.0477 173.5 24.33 172.348 24.33ZM167.805 18.511V17.158H176.88V18.511H167.805ZM182.973 24L178.661 12.12H180.3L183.809 21.888L187.296 12.12H188.957L184.645 24H182.973ZM195.53 24.33C194.371 24.33 193.367 24.0733 192.516 23.56C191.673 23.0467 191.016 22.3243 190.547 21.393C190.078 20.4617 189.843 19.369 189.843 18.115C189.843 16.817 190.074 15.695 190.536 14.749C190.998 13.803 191.647 13.0733 192.483 12.56C193.326 12.0467 194.32 11.79 195.464 11.79C196.637 11.79 197.638 12.0613 198.467 12.604C199.296 13.1393 199.923 13.9093 200.348 14.914C200.773 15.9187 200.968 17.1177 200.931 18.511H199.281V17.939C199.252 16.399 198.918 15.2367 198.28 14.452C197.649 13.6673 196.725 13.275 195.508 13.275C194.232 13.275 193.253 13.6893 192.571 14.518C191.896 15.3467 191.559 16.5273 191.559 18.06C191.559 19.556 191.896 20.7183 192.571 21.547C193.253 22.3683 194.217 22.779 195.464 22.779C196.315 22.779 197.055 22.5847 197.686 22.196C198.324 21.8 198.826 21.2317 199.193 20.491L200.7 21.074C200.231 22.108 199.538 22.911 198.621 23.483C197.712 24.0477 196.681 24.33 195.53 24.33ZM190.987 18.511V17.158H200.062V18.511H190.987ZM203.592 24V7.83H205.209V24H203.592ZM213.468 24.33C212.287 24.33 211.279 24.0623 210.443 23.527C209.607 22.9917 208.965 22.251 208.518 21.305C208.07 20.359 207.847 19.2737 207.847 18.049C207.847 16.8023 208.074 15.7097 208.529 14.771C208.983 13.8323 209.629 13.1027 210.465 12.582C211.308 12.054 212.309 11.79 213.468 11.79C214.656 11.79 215.668 12.0577 216.504 12.593C217.347 13.121 217.989 13.858 218.429 14.804C218.876 15.7427 219.1 16.8243 219.1 18.049C219.1 19.2957 218.876 20.392 218.429 21.338C217.981 22.2767 217.336 23.01 216.493 23.538C215.649 24.066 214.641 24.33 213.468 24.33ZM213.468 22.779C214.788 22.779 215.77 22.3427 216.416 21.47C217.061 20.59 217.384 19.4497 217.384 18.049C217.384 16.6117 217.057 15.4677 216.405 14.617C215.759 13.7663 214.78 13.341 213.468 13.341C212.58 13.341 211.847 13.5427 211.268 13.946C210.696 14.342 210.267 14.8957 209.981 15.607C209.702 16.311 209.563 17.125 209.563 18.049C209.563 19.479 209.893 20.6267 210.553 21.492C211.213 22.35 212.184 22.779 213.468 22.779ZM226.861 24.33C225.769 24.33 224.845 24.055 224.089 23.505C223.334 22.9477 222.762 22.196 222.373 21.25C221.985 20.2967 221.79 19.2297 221.79 18.049C221.79 16.8463 221.985 15.7757 222.373 14.837C222.769 13.891 223.349 13.1467 224.111 12.604C224.874 12.0613 225.813 11.79 226.927 11.79C228.013 11.79 228.944 12.065 229.721 12.615C230.499 13.165 231.093 13.913 231.503 14.859C231.921 15.805 232.13 16.8683 232.13 18.049C232.13 19.237 231.921 20.304 231.503 21.25C231.085 22.196 230.484 22.9477 229.699 23.505C228.915 24.055 227.969 24.33 226.861 24.33ZM221.515 29.28V12.12H222.967V21.063H223.143V29.28H221.515ZM226.696 22.823C227.525 22.823 228.214 22.614 228.764 22.196C229.314 21.778 229.725 21.2097 229.996 20.491C230.275 19.765 230.414 18.951 230.414 18.049C230.414 17.1543 230.279 16.3477 230.007 15.629C229.736 14.9103 229.322 14.342 228.764 13.924C228.214 13.506 227.514 13.297 226.663 13.297C225.835 13.297 225.145 13.4987 224.595 13.902C224.053 14.3053 223.646 14.8663 223.374 15.585C223.103 16.2963 222.967 17.1177 222.967 18.049C222.967 18.9657 223.103 19.787 223.374 20.513C223.646 21.2317 224.056 21.7963 224.606 22.207C225.156 22.6177 225.853 22.823 226.696 22.823ZM239.573 24.33C238.414 24.33 237.41 24.0733 236.559 23.56C235.716 23.0467 235.059 22.3243 234.59 21.393C234.121 20.4617 233.886 19.369 233.886 18.115C233.886 16.817 234.117 15.695 234.579 14.749C235.041 13.803 235.69 13.0733 236.526 12.56C237.369 12.0467 238.363 11.79 239.507 11.79C240.68 11.79 241.681 12.0613 242.51 12.604C243.339 13.1393 243.966 13.9093 244.391 14.914C244.816 15.9187 245.011 17.1177 244.974 18.511H243.324V17.939C243.295 16.399 242.961 15.2367 242.323 14.452C241.692 13.6673 240.768 13.275 239.551 13.275C238.275 13.275 237.296 13.6893 236.614 14.518C235.939 15.3467 235.602 16.5273 235.602 18.06C235.602 19.556 235.939 20.7183 236.614 21.547C237.296 22.3683 238.26 22.779 239.507 22.779C240.358 22.779 241.098 22.5847 241.729 22.196C242.367 21.8 242.869 21.2317 243.236 20.491L244.743 21.074C244.274 22.108 243.581 22.911 242.664 23.483C241.755 24.0477 240.724 24.33 239.573 24.33ZM235.03 18.511V17.158H244.105V18.511H235.03ZM247.415 24V12.12H248.867V14.98L248.581 14.606C248.713 14.254 248.885 13.9313 249.098 13.638C249.311 13.3373 249.542 13.0917 249.791 12.901C250.099 12.6297 250.458 12.4243 250.869 12.285C251.28 12.1383 251.694 12.054 252.112 12.032C252.53 12.0027 252.911 12.032 253.256 12.12V13.638C252.823 13.528 252.35 13.5023 251.837 13.561C251.324 13.6197 250.851 13.825 250.418 14.177C250.022 14.485 249.725 14.8553 249.527 15.288C249.329 15.7133 249.197 16.168 249.131 16.652C249.065 17.1287 249.032 17.6017 249.032 18.071V24H247.415Z" fill="#3B465C"/>
<defs>
<clipPath id="clip0">
<rect width="145.455" height="32" fill="white" transform="translate(0 1)"/>
</clipPath>
</defs>
</svg>
