<svg width="64" height="64" viewBox="0 0 64 64" fill="none" xmlns="http://www.w3.org/2000/svg">
<rect x="1" y="1" width="25" height="25" rx="3" stroke="#323233" stroke-width="2" stroke-miterlimit="10" stroke-linecap="round"/>
<rect x="38" y="1" width="25" height="25" rx="3" stroke="#673AB7" stroke-width="2" stroke-miterlimit="10" stroke-linecap="round"/>
<rect x="1" y="38" width="25" height="25" rx="3" stroke="#673AB7" stroke-width="2" stroke-miterlimit="10" stroke-linecap="round"/>
<rect x="38" y="38" width="25" height="25" rx="3" stroke="#323233" stroke-width="2" stroke-miterlimit="10" stroke-linecap="round"/>
<line x1="14" y1="13" x2="51" y2="13" stroke="#673AB7" stroke-width="2"/>
<line x1="16" y1="11" x2="53" y2="11" stroke="white" stroke-width="2"/>
<line x1="14" y1="50" x2="51" y2="50" stroke="#673AB7" stroke-width="2"/>
<line x1="16" y1="52" x2="53" y2="52" stroke="white" stroke-width="2"/>
<line x1="14" y1="14" x2="14" y2="51" stroke="#673AB7" stroke-width="2"/>
<line x1="12" y1="14" x2="12" y2="51" stroke="white" stroke-width="2"/>
<line x1="51" y1="14" x2="51" y2="51" stroke="#673AB7" stroke-width="2"/>
<line x1="53" y1="14" x2="53" y2="51" stroke="white" stroke-width="2"/>
<circle cx="13.5" cy="13.5" r="4.5" fill="#673AB7"/>
<circle cx="13.5" cy="50.5" r="4.5" fill="#323233"/>
<circle cx="50.5" cy="13.5" r="4.5" fill="#323233"/>
<circle cx="50.5" cy="50.5" r="4.5" fill="#673AB7"/>
</svg>
