<svg width="79" height="66" viewBox="0 0 79 66" fill="none" xmlns="http://www.w3.org/2000/svg">
<path d="M41.3478 41.3478L42.7391 13.5217L52.4783 11.6667L53.4058 43.2029L41.3478 41.3478Z" fill="white" stroke="#323233" stroke-width="2" stroke-linejoin="round"/>
<path d="M71.2323 65.0001H47.9276L43.2029 43.6667C48.0442 42.0529 51.0513 37.2218 50.3618 32.1654L50.1594 30.6812C45.9579 29.0006 43.2029 24.9313 43.2029 20.4062V9.8116H58.971V36.2464H62.996C68.0009 36.2464 72.3749 39.625 73.6392 44.4676L77.0377 57.4844C78.0303 61.2861 75.1616 65.0001 71.2323 65.0001Z" fill="white" stroke="#323233" stroke-width="2" stroke-linejoin="round"/>
<path d="M2.02091 37.7819C1.50621 35.8752 2.94233 34 4.91723 34H43.334C44.6898 34 45.877 34.9093 46.2304 36.2181L52.9791 61.2181C53.4938 63.1248 52.0577 65 50.0828 65H11.666C10.3102 65 9.12297 64.0907 8.76964 62.7819L2.02091 37.7819Z" fill="white" stroke="#673AB7" stroke-width="2" stroke-miterlimit="10" stroke-linecap="round"/>
<path fill-rule="evenodd" clip-rule="evenodd" d="M67.7482 12.5942C67.6497 11.2674 67.3401 9.96272 66.8295 8.72988C66.2002 7.21067 65.2778 5.83028 64.1151 4.66753C62.9523 3.50478 61.5719 2.58244 60.0527 1.95316C58.5335 1.32388 56.9053 1 55.2609 1C53.6165 1 51.9882 1.32388 50.469 1.95316C48.9498 2.58244 47.5694 3.50478 46.4067 4.66753C45.2439 5.83028 44.3216 7.21067 43.6923 8.72988C43.063 10.2491 42.7391 11.8774 42.7391 13.5217L43.2119 13.7608C45.2737 14.8037 47.6402 15.0758 49.8848 14.5281C52.0995 13.9876 54.3002 15.4652 54.6384 17.7196L56.3682 29.2518C57.3945 36.0938 57.118 36.7057 58.9506 44.0486C58.9623 44.0955 59.0049 44.1304 59.0533 44.1304C64.3401 44.1304 68.5817 39.7622 68.4262 34.4777L67.7826 12.5942H67.7482Z" fill="white" stroke="#323233" stroke-width="2" stroke-linejoin="round"/>
<circle cx="27.5" cy="49.5" r="3.5" fill="#673AB7"/>
</svg>
