<svg width="66" height="66" viewBox="0 0 66 66" fill="none" xmlns="http://www.w3.org/2000/svg">
<path d="M33 65C50.6731 65 65 50.6731 65 33C65 15.3269 50.6731 1 33 1C15.3269 1 1 15.3269 1 33C1 50.6731 15.3269 65 33 65Z" stroke="#323233" stroke-width="2" stroke-miterlimit="10" stroke-linecap="round"/>
<path d="M38.0946 34.7996C37.6004 34.3054 36.7893 34.3054 36.295 34.7996L31.8974 39.1973L33.697 40.9969L38.0946 36.5992C38.5889 36.105 38.5889 35.2939 38.0946 34.7996Z" fill="#323233"/>
<path d="M31.2005 27.9054C30.7063 27.4111 29.8952 27.4111 29.4009 27.9054L25.0033 32.303L26.8029 34.1026L31.2005 29.705C31.6948 29.2107 31.6948 28.3996 31.2005 27.9054Z" fill="#323233"/>
<path d="M19.9085 48.1318L11.4174 56.6229C10.7077 55.9766 10.0234 55.2922 9.37701 54.5825L17.8681 46.0914L19.9085 48.1318Z" fill="#323233"/>
<path d="M35.7374 43.0373L22.9628 30.2626C22.798 30.0978 22.5446 30.0978 22.3798 30.2626L19.5917 33.0507C19.541 33.1014 19.503 33.1648 19.4903 33.2281L16.3093 44.2032C16.2713 44.3426 16.3093 44.5074 16.4107 44.6087L21.404 49.602C21.5054 49.7034 21.6701 49.7541 21.8095 49.7034L32.8226 46.4844C32.886 46.459 32.9493 46.4337 33 46.383L35.7628 43.6202C35.9022 43.4681 35.9022 43.202 35.7374 43.0373Z" stroke="#673AB7" stroke-width="2"/>
<path d="M56.623 11.4175L48.1193 19.9213L46.0789 17.8809L54.5699 9.38977C55.2923 10.0234 55.9767 10.7078 56.623 11.4175Z" fill="#323233"/>
<path d="M43.0373 35.7374L30.2627 22.9627C30.0979 22.798 30.0979 22.5445 30.2627 22.3798L33.0508 19.5916C33.1015 19.5409 33.1648 19.5029 33.2282 19.4903L44.2033 16.3093C44.3427 16.2712 44.5074 16.3093 44.6088 16.4106L49.6021 21.4039C49.7035 21.5053 49.7541 21.6701 49.7035 21.8095L46.4844 32.8225C46.4591 32.8859 46.4338 32.9493 46.3831 33L43.6203 35.7627C43.4682 35.9021 43.2021 35.9021 43.0373 35.7374Z" stroke="#673AB7" stroke-width="2"/>
</svg>
