<svg width="56" height="64" viewBox="0 0 56 64" fill="none" xmlns="http://www.w3.org/2000/svg">
<path d="M27.5448 53.9837C26.7936 53.9837 26.0424 53.8168 25.4581 53.3994L9.59896 44.0509C8.84774 43.6335 8.34692 42.7988 8.34692 41.8807C8.34692 40.9625 8.84774 40.2113 9.59896 39.7105L15.6087 36.2048L16.4434 37.6237L10.4337 41.1294C10.0998 41.3798 10.0163 41.7137 10.0163 41.8807C10.0163 42.0476 10.0163 42.3815 10.4337 42.6319L26.2928 51.9804C27.044 52.4812 28.0457 52.4812 28.7969 51.9804L44.656 42.6319C44.9899 42.3815 45.0734 42.0476 45.0734 41.8807C45.0734 41.7137 45.0734 41.3798 44.656 41.1294L38.6462 37.6237L39.4809 36.2048L45.4907 39.7105C46.2419 40.1278 46.7428 40.9625 46.7428 41.8807C46.7428 42.7988 46.2419 43.55 45.4907 44.0509L29.6316 53.3994C29.0473 53.8168 28.2961 53.9837 27.5448 53.9837Z" fill="black"/>
<path d="M27.5448 44.0509C26.7936 44.0509 26.0424 43.8839 25.4581 43.4666L9.59896 34.118C8.84774 33.7007 8.34692 32.866 8.34692 31.9478C8.34692 31.0297 8.84774 30.2784 9.59896 29.7776L15.6087 26.2719C16.0261 26.0215 16.5269 26.1885 16.7773 26.6058C17.0277 27.0231 16.8608 27.524 16.4434 27.7744L10.4337 31.2801C10.0998 31.5305 10.0163 31.8644 10.0163 32.0313C10.0163 32.1982 10.0163 32.5321 10.4337 32.7825L26.2928 42.1311C27.044 42.6319 28.0457 42.6319 28.7969 42.1311L44.656 32.7825C44.9899 32.5321 45.0734 32.1982 45.0734 32.0313C45.0734 31.8644 45.0734 31.5305 44.656 31.2801L38.6462 27.7744C38.2289 27.524 38.1454 27.0231 38.3124 26.6058C38.5628 26.1885 39.0636 26.105 39.4809 26.2719L45.4907 29.7776C46.2419 30.195 46.7428 31.0297 46.7428 31.9478C46.7428 32.866 46.2419 33.6172 45.4907 34.118L29.6316 43.4666C29.0473 43.8839 28.2961 44.0509 27.5448 44.0509Z" fill="#8247E5"/>
<path d="M27.5448 64C26.7936 64 26.0424 63.8331 25.3746 63.4157L2.00327 49.5598C0.75123 48.8086 0 47.4731 0 45.9707V18.0085C0 16.506 0.75123 15.1705 2.00327 14.4193L25.3746 0.563417C26.7101 -0.187806 28.2961 -0.187806 29.6316 0.563417L53.0029 14.4193C54.255 15.1705 55.0062 16.506 55.0062 18.0085V45.8872C55.0062 47.3896 54.255 48.7251 53.0029 49.4764L29.6316 63.3323C29.0473 63.8331 28.2961 64 27.5448 64ZM27.5448 1.64852C27.1275 1.64852 26.6267 1.73199 26.2928 1.98239L2.92142 15.8383C2.1702 16.2556 1.66938 17.0903 1.66938 18.0085V45.8872C1.66938 46.8054 2.1702 47.5566 2.92142 48.0574L26.2928 61.9133C27.044 62.4141 28.0457 62.4141 28.8803 61.9133L52.2517 48.0574C53.0029 47.64 53.5038 46.8054 53.5038 45.8872V18.0085C53.5038 17.0903 53.0029 16.3391 52.2517 15.8383L28.8803 1.98239C28.463 1.73199 28.0456 1.64852 27.5448 1.64852Z" fill="#8247E5"/>
<path d="M27.5448 34.118C26.7936 34.118 26.0424 33.9511 25.4581 33.5337L9.59896 24.1852C8.84774 23.7678 8.34692 22.9332 8.34692 22.015C8.34692 21.0968 8.84774 20.3456 9.59896 19.8448L25.4581 10.4962C26.7936 9.74503 28.3795 9.74503 29.715 10.4962L45.5742 19.8448C46.3254 20.2621 46.8262 21.0968 46.8262 22.015C46.8262 22.9332 46.3254 23.6844 45.5742 24.1852L29.715 33.5337C29.0473 33.9511 28.2961 34.118 27.5448 34.118ZM27.5448 11.6648C27.1275 11.6648 26.6267 11.7483 26.2928 11.9987L10.4337 21.3472C10.0998 21.5977 10.0163 21.9315 10.0163 22.0985C10.0163 22.2654 10.0163 22.5993 10.4337 22.8497L26.2928 32.1982C27.044 32.6991 28.0457 32.6991 28.7969 32.1982L44.656 22.8497C44.9899 22.5993 45.0734 22.2654 45.0734 22.0985C45.0734 21.9315 45.0734 21.5977 44.656 21.3472L28.7969 11.9987C28.463 11.7483 28.0457 11.6648 27.5448 11.6648Z" fill="black"/>
<path d="M30.5497 27.9413C30.2993 27.9413 30.0489 27.8579 29.7985 27.7744L27.4614 26.4389C27.044 26.1885 26.7101 25.6877 26.7101 25.1868C26.7101 24.686 27.044 24.3521 27.5448 24.3521C27.9622 24.3521 28.2961 24.686 28.3795 25.1034L30.5497 26.3554L32.7199 25.1034V22.5993L30.5497 21.3473L25.3746 24.3521C24.9573 24.6026 24.373 24.6026 23.8722 24.3521L21.5351 23.0166C21.1177 22.7662 20.7838 22.2654 20.7838 21.7646V19.0936C20.7838 18.5928 21.0342 18.092 21.5351 17.8416L23.8722 16.506C24.2895 16.2556 24.8738 16.2556 25.3746 16.506L27.7118 17.8416C28.1291 18.092 28.463 18.5928 28.463 19.0936C28.463 19.5944 28.1291 19.9283 27.6283 19.9283C27.211 19.9283 26.8771 19.5944 26.7936 19.1771L24.6234 17.925L22.4532 19.1771V21.6811L24.6234 22.9332L29.7985 19.9283C30.2159 19.6779 30.8001 19.6779 31.301 19.9283L33.6381 21.2638C34.0554 21.5142 34.3893 22.015 34.3893 22.5158V25.1868C34.3893 25.6877 34.1389 26.1885 33.6381 26.4389L31.301 27.7744C31.0505 27.8579 30.8001 27.9413 30.5497 27.9413Z" fill="#8247E5"/>
</svg>
